<mxfile host="app.diagrams.net" modified="2021-11-10T20:28:42.159Z" agent="5.0 (Windows NT 10.0; Win64; x64) AppleWebKit/537.36 (KHTML, like Gecko) Chrome/95.0.4638.69 Safari/537.36" etag="ex2NpCreE2ik9SDSCjwt" version="15.7.2" type="github">
  <diagram id="wNCr2siOae8q9_KzVNeR" name="Page-1">
    <mxGraphModel dx="1182" dy="692" grid="1" gridSize="10" guides="1" tooltips="1" connect="1" arrows="1" fold="1" page="1" pageScale="1" pageWidth="850" pageHeight="1100" math="0" shadow="0">
      <root>
        <mxCell id="0" />
        <mxCell id="1" parent="0" />
        <mxCell id="hqq4S-X_dyneHtnvG-kj-1" value="" style="rounded=0;whiteSpace=wrap;html=1;" parent="1" vertex="1">
          <mxGeometry width="850" height="80" as="geometry" />
        </mxCell>
        <mxCell id="hqq4S-X_dyneHtnvG-kj-2" value="&lt;font style=&quot;font-size: 17px&quot;&gt;Logo&lt;/font&gt;" style="ellipse;whiteSpace=wrap;html=1;" parent="1" vertex="1">
          <mxGeometry x="80" width="80" height="80" as="geometry" />
        </mxCell>
        <mxCell id="hqq4S-X_dyneHtnvG-kj-3" value="Menu" style="text;html=1;resizable=0;autosize=1;align=center;verticalAlign=middle;points=[];fillColor=none;strokeColor=none;rounded=0;fontSize=15;" parent="1" vertex="1">
          <mxGeometry x="500" y="30" width="50" height="20" as="geometry" />
        </mxCell>
        <mxCell id="hqq4S-X_dyneHtnvG-kj-4" value="About" style="text;html=1;resizable=0;autosize=1;align=center;verticalAlign=middle;points=[];fillColor=none;strokeColor=none;rounded=0;fontSize=15;" parent="1" vertex="1">
          <mxGeometry x="580" y="30" width="50" height="20" as="geometry" />
        </mxCell>
        <mxCell id="hqq4S-X_dyneHtnvG-kj-5" value="Media" style="text;html=1;resizable=0;autosize=1;align=center;verticalAlign=middle;points=[];fillColor=none;strokeColor=none;rounded=0;fontSize=15;" parent="1" vertex="1">
          <mxGeometry x="660" y="30" width="60" height="20" as="geometry" />
        </mxCell>
        <mxCell id="hqq4S-X_dyneHtnvG-kj-6" value="Contact" style="text;html=1;resizable=0;autosize=1;align=center;verticalAlign=middle;points=[];fillColor=none;strokeColor=none;rounded=0;fontSize=15;" parent="1" vertex="1">
          <mxGeometry x="735" y="30" width="70" height="20" as="geometry" />
        </mxCell>
        <mxCell id="hqq4S-X_dyneHtnvG-kj-8" value="" style="rounded=0;whiteSpace=wrap;html=1;fontSize=15;" parent="1" vertex="1">
          <mxGeometry y="80" width="850" height="440" as="geometry" />
        </mxCell>
        <mxCell id="hqq4S-X_dyneHtnvG-kj-9" value="Restaurant Name" style="text;html=1;resizable=0;autosize=1;align=center;verticalAlign=middle;points=[];fillColor=none;strokeColor=none;rounded=0;fontSize=49;" parent="1" vertex="1">
          <mxGeometry x="225" y="180" width="400" height="60" as="geometry" />
        </mxCell>
        <mxCell id="hqq4S-X_dyneHtnvG-kj-11" value="&lt;font style=&quot;font-size: 21px&quot;&gt;Restaurant Description&lt;/font&gt;" style="text;html=1;resizable=0;autosize=1;align=center;verticalAlign=middle;points=[];fillColor=none;strokeColor=none;rounded=0;fontSize=17;" parent="1" vertex="1">
          <mxGeometry x="310" y="250" width="230" height="30" as="geometry" />
        </mxCell>
        <mxCell id="hqq4S-X_dyneHtnvG-kj-12" value="&lt;font style=&quot;font-size: 19px&quot;&gt;View Our Menu&lt;/font&gt;" style="rounded=1;whiteSpace=wrap;html=1;fontSize=21;" parent="1" vertex="1">
          <mxGeometry x="350" y="320" width="150" height="40" as="geometry" />
        </mxCell>
        <mxCell id="hqq4S-X_dyneHtnvG-kj-14" value="(video background)" style="text;html=1;resizable=0;autosize=1;align=center;verticalAlign=middle;points=[];fillColor=none;strokeColor=none;rounded=0;fontSize=19;" parent="1" vertex="1">
          <mxGeometry x="335" y="120" width="180" height="30" as="geometry" />
        </mxCell>
        <mxCell id="hJn0e_nJmGX5PLMq-et--1" value="" style="rounded=0;whiteSpace=wrap;html=1;fontSize=19;" vertex="1" parent="1">
          <mxGeometry y="460" width="850" height="60" as="geometry" />
        </mxCell>
        <mxCell id="hJn0e_nJmGX5PLMq-et--2" value="&lt;span style=&quot;color: rgb(32 , 33 , 36) ; font-family: &amp;#34;roboto&amp;#34; , &amp;#34;arial&amp;#34; , sans-serif ; text-align: left ; background-color: rgb(255 , 255 , 255)&quot;&gt;&lt;font style=&quot;font-size: 10px&quot;&gt;Â© 2021 Restaurant Name Inc.&lt;/font&gt;&lt;/span&gt;" style="text;html=1;resizable=0;autosize=1;align=center;verticalAlign=middle;points=[];fillColor=none;strokeColor=none;rounded=0;fontSize=12;" vertex="1" parent="1">
          <mxGeometry x="350" y="500" width="150" height="20" as="geometry" />
        </mxCell>
        <mxCell id="hJn0e_nJmGX5PLMq-et--3" value="Social Media Logo Links" style="text;html=1;resizable=0;autosize=1;align=center;verticalAlign=middle;points=[];fillColor=none;strokeColor=none;rounded=0;fontSize=16;" vertex="1" parent="1">
          <mxGeometry x="330" y="480" width="190" height="20" as="geometry" />
        </mxCell>
      </root>
    </mxGraphModel>
  </diagram>
</mxfile>
